<?xml version="1.0" encoding="UTF-8"?>
<svg id="Layer_1" xmlns="http://www.w3.org/2000/svg" viewBox="0 0 510.69 82.65">
  <defs>
    <style>
      .cls-1 {
        fill: none;
        stroke: #fff;
        stroke-width: 6.33px;
      }

      .cls-2 {
        fill: #fff;
      }
    </style>
  </defs>
  <path class="cls-2" d="M122.51,24.65l9.34-.33v16.96l-9.34-.42v27.57h-28.24v-27.57l-6.84.42v-16.96l6.84.33v-14.87h28.24v14.87Z"/>
  <path class="cls-2" d="M178.79,45.07c-2.93-1.33-5-2.4-8.58-2.4-7.28,0-10.97,3.32-10.97,8.79v16.91h-28.02V24.34h28.02l-.65,5.89h.65c5-5.8,10.1-7.05,19.55-6.88v21.73Z"/>
  <path class="cls-2" d="M202.36,49.88c0,3.6.76,7.6,6.63,7.6,2.93,0,5.11-1.58,5.65-3.67h27.26c-3.69,10.69-19.22,15.62-32.48,15.62-18.14,0-34.76-7.18-34.76-22.47s14.77-23.9,33.13-23.9c20.53,0,36.71,10.19,35.3,26.82h-40.73ZM215.5,40.69c0-3.01-2.82-5.77-6.84-5.77-4.24,0-6.3,2.67-6.3,5.77h13.14Z"/>
  <path class="cls-2" d="M246.24,20.14c0-12.95,7.6-20.14,24.98-20.14,4.13,0,8.15.5,12.28,1v17.13c-1.41-.42-2.5-.75-3.8-.75-4.78,0-5.86,3.01-5.86,5.93v1.67l9.45-.92v17.3l-9.02-.59v27.66h-28.02v-27.66l-7.6.59v-17.3l7.6.75v-4.68Z"/>
  <path class="cls-2" d="M326.73,43.28c-2.93-1.92-6.3-3.68-10.32-3.68-5.11,0-8.8,2.59-8.8,6.6,0,3.51,3.69,6.35,8.25,6.35s7.6-1.67,10.86-3.43l-1.19,18.21c-4.35,1.09-9.23,2.09-14.12,2.09-18.68,0-32.04-8.1-32.04-22.98,0-13.12,12.49-23.39,29.76-23.39,5.86,0,11.95.84,17.6,2.26v17.96Z"/>
  <path class="cls-2" d="M396.54,46.79c0,14.71-17.06,22.64-35.21,22.64s-35.21-7.94-35.21-22.64c0-15.54,16.07-23.73,35.21-23.73s35.21,8.19,35.21,23.73ZM353.46,46.46c0,3.51,3.5,6.1,7.87,6.1s7.87-2.59,7.87-6.1-3.17-6.52-7.87-6.52-7.87,2.93-7.87,6.52Z"/>
  <path class="cls-2" d="M402.23,58.14l1.04.5c2.33,1.1,5.69,2.44,8.53,2.44,1.1,0,2.46-.45,2.46-1.44,0-1.44-2-1.49-3.36-1.64-5.56-.6-10.73-2.34-10.73-7.31,0-6.62,8.66-9.25,16.03-9.25,4.27,0,9.57.65,13.32,2.24l-4.07,7.31c-2.13-1.19-4.98-2.19-7.69-2.19-1.03,0-2.39.25-2.39,1.19,0,1.29,1.81,1.39,4.14,1.69,5.95.75,10.8,2.34,10.8,7.66,0,6.87-8.86,9.7-16.62,9.7-5.43,0-10.73-1.29-15.71-2.94l4.27-7.96Z"/>
  <path class="cls-2" d="M449.28,62.86c0,3.93-4.91,6.17-9.63,6.17s-9.63-2.24-9.63-6.17,4.91-6.32,9.63-6.32,9.63,2.34,9.63,6.32Z"/>
  <path class="cls-2" d="M475.8,64.95h-.39c-3.04,2.49-5.75,4.08-10.47,4.08-9.31,0-14.48-7.26-14.48-13.68s5.24-13.92,14.94-13.92c4.14,0,7.56,1.14,10.02,3.73h.39l-.52-3.13h16.36v26.41h-16.36l.52-3.48ZM471.34,58.98c3.17,0,4.46-1.94,4.46-3.98s-1.81-3.53-4.46-3.53-4.33,1.69-4.33,3.63c0,2.09,1.29,3.88,4.33,3.88Z"/>
  <path class="cls-2" d="M510.69,62.48c0,3.93-4.91,6.17-9.63,6.17s-9.63-2.24-9.63-6.17,4.92-6.32,9.63-6.32,9.63,2.34,9.63,6.32Z"/>
  <rect class="cls-1" x="3.16" y="4.85" width="76.93" height="74.63"/>
  <rect class="cls-2" x="23.65" y="73.21" width="486.12" height="9.43"/>
  <polygon class="cls-2" points="8.87 8.28 8.87 25.03 30.28 25.03 30.28 31.53 51.29 31.53 51.29 25.03 72.71 25.03 72.71 8.28 8.87 8.28"/>
  <rect class="cls-2" x="23.65" y="37.88" width="34.01" height="5.99"/>
  <rect class="cls-2" x="23.85" y="49.58" width="33.86" height="6.44"/>
  <rect class="cls-2" x="23.86" y="61.49" width="33.86" height="6.44"/>
  <polygon class="cls-2" points="6.35 31.53 76.96 31.53 76.96 4.85 3.16 4.85 3.16 31.53 6.35 31.53"/>
</svg>